<svg width="18" height="22" viewBox="0 0 18 22" fill="none" xmlns="http://www.w3.org/2000/svg">
<g clip-path="url(#clip0_1_3012)">
<path d="M14.9453 20.4269C13.8177 21.5212 12.5736 21.3506 11.3877 20.8347C10.127 20.3083 8.97438 20.275 7.64289 20.8347C5.98476 21.5504 5.10472 21.3423 4.1061 20.4269C-1.53196 14.6224 -0.699772 5.78051 5.70806 5.44763C7.26216 5.53085 8.35024 6.30686 9.26565 6.37136C10.6263 6.09466 11.9286 5.302 13.385 5.40602C15.1346 5.5475 16.4432 6.23821 17.317 7.48024C13.7178 9.64392 14.5708 14.3874 17.8767 15.7189C17.2151 17.456 16.3663 19.1724 14.9432 20.4415L14.9453 20.4269ZM9.14082 5.38522C8.9723 2.80545 11.0632 0.683387 13.4682 0.475342C13.799 3.4504 10.7636 5.67648 9.14082 5.38522Z" fill="#192126"/>
</g>
<defs>
<clipPath id="clip0_1_3012">
<rect width="17.5175" height="20.8046" fill="white" transform="translate(0.341309 0.45459)"/>
</clipPath>
</defs>
</svg>
