<svg width="63" height="53" viewBox="0 0 63 53" fill="none" xmlns="http://www.w3.org/2000/svg">
<path fill-rule="evenodd" clip-rule="evenodd" d="M17.9715 35.3739L17.573 27.5576L18.7504 27.7987L20.7555 34.7453L18.054 40.1489L14.3346 40.5018L17.9715 35.3739Z" fill="#FFC700"/>
<path fill-rule="evenodd" clip-rule="evenodd" d="M28.0313 32.6258L27.2732 22.9144L28.8065 23.2633L30.8469 31.8428L28.9484 40.367L23.8202 40.1714L28.0313 32.6258Z" fill="#FFC700"/>
<path fill-rule="evenodd" clip-rule="evenodd" d="M40.0668 30.5846L37.9274 19.7294L39.8257 19.8455L43.0518 30.2257L41.0148 39.2253L38.6723 40.9701L35.3594 40.9596L40.0668 30.5846Z" fill="#FFC700"/>
<path fill-rule="evenodd" clip-rule="evenodd" d="M28.9082 43.5338L4.92235 42.6107L2.50766 38.8301L5.92097 27.6687L0 19.7408L11.4472 10.847L41.5629 0.328125L56.0982 2.92398L62.4139 21.2351L53.2422 40.6121L55.0533 48.8159L41.0985 52.3397L28.2813 49.4632L28.9082 43.5338ZM32.4374 43.5338L31.4159 47.2503L40.9125 50.1222L51.0364 46.9744L48.0643 40.3576L40.1928 43.5338H32.4374ZM29.628 40.1744L38.8693 39.9721L50.2702 35.3252L49.9915 39.5533L57.5145 20.4904L51.5007 7.70873L41.5164 6.22166L13.5136 14.2304L3.87747 21.04L7.84814 20.212L9.40389 29.151L6.4781 37.4976L7.54633 39.4106L29.628 40.1744Z" fill="#FFC700"/>
</svg>
