<svg width="22" height="22" viewBox="0 0 22 22" fill="none" xmlns="http://www.w3.org/2000/svg">
<g clip-path="url(#clip0_1_3016)">
<path d="M11.1002 21.5122C16.8452 21.5122 21.5025 16.8549 21.5025 11.1098C21.5025 5.3648 16.8452 0.70752 11.1002 0.70752C5.35515 0.70752 0.697876 5.3648 0.697876 11.1098C0.697876 16.8549 5.35515 21.5122 11.1002 21.5122Z" fill="#3577E5"/>
<path d="M12.0711 17.2821V11.6648H13.9435L14.2209 9.44566H12.0711V8.05868C12.0711 7.43454 12.2791 7.01845 13.1807 7.01845H14.3596V5.00734C14.1515 5.00734 13.458 4.93799 12.6952 4.93799C11.0308 4.93799 9.85191 5.97822 9.85191 7.85064V9.44566H7.97949V11.6648H9.85191V17.2821H12.0711Z" fill="white"/>
</g>
<defs>
<clipPath id="clip0_1_3016">
<rect x="0.697632" y="0.70752" width="20.8046" height="20.8046" rx="1.04023" fill="white"/>
</clipPath>
</defs>
</svg>
