<svg width="22" height="21" viewBox="0 0 22 21" fill="none" xmlns="http://www.w3.org/2000/svg">
<path d="M21.2814 10.8381C21.2814 10.1533 21.2208 9.50317 21.1167 8.87036H11.3212V12.7799H16.9298C16.6784 14.0629 15.9416 15.1464 14.8493 15.8833V18.4838H18.1954C20.1545 16.6721 21.2814 14.0022 21.2814 10.8381Z" fill="#4285F4"/>
<path d="M11.3214 21.0063C14.13 21.0063 16.4792 20.0701 18.1956 18.4838L14.8495 15.8832C13.9133 16.5073 12.7257 16.8887 11.3214 16.8887C8.60815 16.8887 6.31097 15.0597 5.48746 12.5891H2.03735V15.2677C3.74507 18.6658 7.25585 21.0063 11.3214 21.0063Z" fill="#34A853"/>
<path d="M5.4873 12.589C5.27058 11.9649 5.15789 11.2974 5.15789 10.6039C5.15789 9.9104 5.27925 9.24292 5.4873 8.61878V5.94019H2.03719C1.32637 7.3445 0.918945 8.92218 0.918945 10.6039C0.918945 12.2856 1.32637 13.8633 2.03719 15.2676L5.4873 12.589Z" fill="#FBBC05"/>
<path d="M11.3214 4.31924C12.8558 4.31924 14.2254 4.84803 15.309 5.87959L18.2736 2.91493C16.4792 1.23322 14.13 0.20166 11.3214 0.20166C7.25585 0.20166 3.74507 2.54218 2.03735 5.94027L5.48746 8.61887C6.31097 6.14832 8.60815 4.31924 11.3214 4.31924Z" fill="#EA4335"/>
</svg>
